<svg xmlns="http://www.w3.org/2000/svg" width="50.115" height="30" viewBox="0 0 50.115 30">
  <g id="Dumper" transform="translate(-1822.885 -102)">
    <rect id="Rectangle_14509" data-name="Rectangle 14509" width="50" height="30" transform="translate(1823 102)" fill="none"/>
    <g id="Group_43115" data-name="Group 43115" transform="translate(134 6.502)">
      <path id="Path_115009" data-name="Path 115009" d="M57.394,178.446H55.321l-1.069-6.414a1.24,1.24,0,0,0-1.215-1.051H46.876a1.247,1.247,0,0,0-1.219,1.085l-.382,2.719h-1.2a.611.611,0,0,0-.6.515l-.495,3.147h-.943a.608.608,0,0,0-.519.291l-2.86,4.657-.6-.171c2.6-4.529,5.54-9.641,8.139-14.164h7.579a.61.61,0,0,0,0-1.22H44.749c-.522.057-3.014-.15-3.42.161l-5.274,2.973c0,.013-23.491-.4-23.5-.391a1.235,1.235,0,0,0-1.08.6l-2.4,4.259a1.252,1.252,0,0,0,.708,1.861l3.442.993,2.152,2.378-1.6,1.6a.609.609,0,0,0-.179.431v1.675a7.776,7.776,0,1,0,13.37,6.83h2.47a1.627,1.627,0,0,0,1.538,1.1h2.033a1.627,1.627,0,0,0,1.538-1.1h4.142a7.823,7.823,0,0,0,3.035,4.682h0A7.8,7.8,0,0,0,53.906,191.2H55.66c-.011.506-.068,1.106.61,1.15.678-.044.621-.643.61-1.15h1.511a.61.61,0,0,0,.61-.61V180.053a1.608,1.608,0,0,0-1.607-1.607Zm-3.327,11.538a7.776,7.776,0,1,0-15.533,0H38.1v-2.859a.61.61,0,0,0-1.22,0v2.859h-.511v-2.859a.61.61,0,0,0-1.22,0v2.859h-.514v-2.818a1.628,1.628,0,0,0-1.626-1.626H30.98a1.628,1.628,0,0,0-1.626,1.626v2.818h-.528v-2.859a.61.61,0,0,0-1.22,0v2.859h-.476a7.794,7.794,0,0,0-12.309-6.7v-.33l1.456-1.457a1.61,1.61,0,0,0,1.732-.19l1.489-1.2,5.148,1.485,2.573,2.843a1.617,1.617,0,0,0,2.216.172l1.488-1.2,5.1,1.47a1.24,1.24,0,0,0,1.411-.555l.563.161c-.254.477-.936,1.132-.263,1.594a.61.61,0,0,0,.839-.2l3.807-6.2h8.939l4.341,7.271v3.047H54.065Z" transform="translate(1680 -72.327)" fill="#f44"/>
      <path id="Path_115004" data-name="Path 115004" d="M57.394,178.446H55.321l-1.069-6.414a1.24,1.24,0,0,0-1.215-1.051H46.876a1.247,1.247,0,0,0-1.219,1.085l-.382,2.719h-1.2a.611.611,0,0,0-.6.515l-.495,3.147h-.943a.608.608,0,0,0-.519.291l-2.86,4.657-.6-.171c2.6-4.529,5.54-9.641,8.139-14.164h7.579a.61.61,0,0,0,0-1.22H44.749c-.522.057-3.014-.15-3.42.161l-5.274,2.973c0,.013-23.491-.4-23.5-.391a1.235,1.235,0,0,0-1.08.6l-2.4,4.259a1.252,1.252,0,0,0,.708,1.861l3.442.993,2.152,2.378-1.6,1.6a.609.609,0,0,0-.179.431v1.675a7.776,7.776,0,1,0,13.37,6.83h2.47a1.627,1.627,0,0,0,1.538,1.1h2.033a1.627,1.627,0,0,0,1.538-1.1h4.142a7.823,7.823,0,0,0,3.035,4.682h0A7.8,7.8,0,0,0,53.906,191.2H55.66c-.011.506-.068,1.106.61,1.15.678-.044.621-.643.61-1.15h1.511a.61.61,0,0,0,.61-.61V180.053a1.608,1.608,0,0,0-1.607-1.607Zm-2.591,1.22h.857v4.892l-2.921-4.892Zm2.077,4.616h.9v1.088h-.9Zm0-1.22v-1.089h.9v1.089Zm0,3.707v-.18h.9v1.089h-.9Zm.9-6.715v.7h-.9v-1.088C57.209,179.676,57.765,179.561,57.781,180.053Zm-4.731-7.819.036.215c-3.514.124-3.19-.755-3.183,2.654a.609.609,0,0,0,.519.6l3.288.492.375,2.248H48.968V172.2H53.03a.047.047,0,0,1,.018.034Zm.449,2.7-2.376-.356v-.909h2.166l.211,1.264ZM44.6,176h1.205a.61.61,0,0,0,.6-.524c.013-.044.442-3.242.469-3.279h.87v6.246H44.215L44.6,176Zm-19.449,4.458c-.01,0-2.885-.832-2.9-.835l1.6-2.179H39.972l-.574,1H32.534a.608.608,0,0,0-.507.271l-2.084,3.126-4.792-1.382Zm4.344,2.523c-1.469,1.212-.946.972-2.623-.757Zm-9.944-4.137-5.824-1.682c-.035-.005-.237-.066-.271-.075l1.35-2.054H41.359l-.686,1.193H23.541a.609.609,0,0,0-.492.25l-2.043,2.789-1.455-.42ZM16.7,180.315l-1.251-1.383,2.622.757-.827.669a.4.4,0,0,1-.543-.043ZM31.173,182.2l1.688-2.534H38.7c-.035.017-2.283,4.051-2.338,4.029l-5.187-1.5Zm10.757-13.138c0-.007,2.811,0,2.818,0h.045l-1.1,1.921H38.523l3.4-1.919Zm-31.822,7.049c.019-.068,2.379-4.259,2.431-4.31,5.106.078,25.754.486,30.451.4l-.927,1.614H14.476a.608.608,0,0,0-.509.275l-1.738,2.646c-.017-.016-2.119-.591-2.122-.623Zm13.588,18.405a.62.62,0,1,0-.986.718,6.482,6.482,0,0,1-2.734.888.62.62,0,1,0-1.22,0,6.482,6.482,0,0,1-2.734-.888.62.62,0,1,0-.986-.718,6.6,6.6,0,0,1-1.688-2.327.62.62,0,1,0-.378-1.16,6.547,6.547,0,0,1,0-2.874A.621.621,0,1,0,13.343,187a6.568,6.568,0,0,1,1.691-2.326.621.621,0,1,0,.987-.718,6.487,6.487,0,0,1,2.734-.888.621.621,0,1,0,1.22,0,6.483,6.483,0,0,1,2.734.888.621.621,0,1,0,.987.718A6.58,6.58,0,0,1,25.383,187a.62.62,0,1,0,.378,1.16,6.486,6.486,0,0,1,0,2.874.62.62,0,1,0-.378,1.16,6.606,6.606,0,0,1-1.688,2.326Zm9.725-3.836a.406.406,0,0,1-.407.407H30.98a.406.406,0,0,1-.407-.407v-3.515a.406.406,0,0,1,.407-.407h2.033a.406.406,0,0,1,.407.407Zm17.211,3.836a.621.621,0,1,0-.986.719,6.473,6.473,0,0,1-2.734.888.62.62,0,1,0-1.22,0,6.473,6.473,0,0,1-2.734-.888.621.621,0,1,0-.986-.719,6.614,6.614,0,0,1-1.688-2.326.62.62,0,1,0-.378-1.16,6.486,6.486,0,0,1,0-2.874.62.62,0,1,0,.378-1.16,6.589,6.589,0,0,1,1.687-2.326.62.62,0,1,0,.986-.718,6.468,6.468,0,0,1,2.734-.888.621.621,0,1,0,1.22,0,6.487,6.487,0,0,1,2.735.888.621.621,0,1,0,.986.718A6.58,6.58,0,0,1,52.318,187a.62.62,0,1,0,.378,1.16,6.486,6.486,0,0,1,0,2.874.62.62,0,1,0-.378,1.16,6.615,6.615,0,0,1-1.688,2.326Zm3.436-4.532a7.776,7.776,0,1,0-15.533,0H38.1v-2.859a.61.61,0,0,0-1.22,0v2.859h-.511v-2.859a.61.61,0,0,0-1.22,0v2.859h-.514v-2.818a1.628,1.628,0,0,0-1.626-1.626H30.98a1.628,1.628,0,0,0-1.626,1.626v2.818h-.528v-2.859a.61.61,0,0,0-1.22,0v2.859h-.476a7.794,7.794,0,0,0-12.309-6.7v-.33l1.456-1.457a1.61,1.61,0,0,0,1.732-.19l1.489-1.2,5.148,1.485,2.573,2.843a1.617,1.617,0,0,0,2.216.172l1.488-1.2,5.1,1.47a1.24,1.24,0,0,0,1.411-.555l.563.161c-.254.477-.936,1.132-.263,1.594a.61.61,0,0,0,.839-.2l3.807-6.2h8.939l4.341,7.271v3.047H54.065Zm2.813,0V188.9h.9v1.088Z" transform="translate(1680 -72.327)"/>
      <path id="Path_115005" data-name="Path 115005" d="M357.956,360.62a2.174,2.174,0,0,0,0,4.347A2.174,2.174,0,0,0,357.956,360.62Zm.734,2.783a.954.954,0,1,1-.734-1.563A.96.96,0,0,1,358.69,363.4Z" transform="translate(1368.344 -245.526)"/>
      <path id="Path_115006" data-name="Path 115006" d="M341.371,342a4.066,4.066,0,0,0,0,8.132A4.066,4.066,0,0,0,341.371,342Zm2.726,4.89a2.852,2.852,0,0,1-5.572-.824A2.852,2.852,0,1,1,344.1,346.89Z" transform="translate(1384.928 -228.798)"/>
      <path id="Path_115007" data-name="Path 115007" d="M92.936,360.62a2.174,2.174,0,0,0,0,4.347A2.174,2.174,0,0,0,92.936,360.62Zm.734,2.783a.954.954,0,1,1-.734-1.563A.961.961,0,0,1,93.67,363.4Z" transform="translate(1606.428 -245.526)"/>
      <path id="Path_115008" data-name="Path 115008" d="M76.354,342a4.066,4.066,0,0,0,0,8.132C81.729,349.981,81.725,342.165,76.354,342Zm2.725,4.89a2.846,2.846,0,1,1-2.724-3.669,2.857,2.857,0,0,1,2.724,3.669Z" transform="translate(1623.01 -228.798)"/>
    </g>
  </g>
</svg>
