<svg id="Layer_1" data-name="Layer 1" xmlns="http://www.w3.org/2000/svg" viewBox="0 0 1428.9 1159.27"><path d="M821.52,3074.21c-10.11,35.68-12.58,37.5-49.74,37.5-51.15,0-102.29.09-153.43,0-27.52-.06-37.67-10.26-37.68-38.11q-.09-378.33,0-756.67c0-27.56,10.58-38.29,37.79-38.38q81.94-.26,163.88,0c25.5.1,35.83,10.57,36.45,36,.33,13.35.32,26.71.56,40.07,0,1.05.82,2.09,2.38,5.77,27.65,0,56.69-2.2,85.22.63,28,2.77,43.85-6.58,53.13-33,6.49-18.48,16.91-35.61,26-53.14,28.42-55.07,71.73-93.76,129.84-115q196.9-72.14,394.16-143.36c25.62-9.3,39.25-3.09,48.94,22.61,13.17,34.88,12.65,70.65,4.72,106.4-14.07,63.45-42.11,119.14-93.11,161.28-26.43,21.84-56.87,32.46-91.48,33.12-15.41.3-30.74,5.15-46.1,7.94l.75,6.75h18q265,0,530,.05c66.86.06,116.64,43,126.51,108.49,10.42,69.06-44.2,137-114.18,139.2-55.71,1.77-111.52.36-170,.36,13.17,28.31,21.18,55.58,15.64,85.37-5.41,29.08-19.2,53.17-41.32,74.46,36.69,36.52,52.79,79.42,37.7,129.89-14.84,49.61-49.9,78-96.75,87.52,4.17,25,11.89,49.25,11.51,73.35a119.17,119.17,0,0,1-118.56,117.5c-120.29,1-240.61,1.51-360.88-.45-25.9-.42-51.79-11.59-77.39-18.83-86.51-24.46-172.89-49.4-259.33-74.12C830.28,3076.08,825.81,3075.22,821.52,3074.21Zm432.92,41.46c-31.39-64.36-21.66-116.92,24.47-163.67-27.67-25.78-43.19-56.52-43.17-94.21,0-38.05,16.71-68.87,43-95-39.46-38.93-53-83.23-36-134.85,16.43-49.92,64.77-84.42,116.48-84.42h277.18c82.51,0,165,.16,247.54-.11,31.77-.1,55.91-18.43,63.45-46.93,11.54-43.61-19.44-82.41-66.4-82.45q-288.51-.18-577,0c-4.54,0-9.09.57-11.34.72-13.32,34.5-23.63,68.55-39.18,100-33.54,67.83-100.89,80.82-165.73,78.19-15.06-.62-25.1-14.52-25-28.86.06-15,11-27.09,27.06-28.91,10.37-1.18,20.85-1.75,31.29-2.06,45.4-1.32,75.49-23.69,90.1-66.32,8.84-25.77,16.07-52.08,24.35-78,21.93-68.72,73.25-107.37,144.84-108.42,25-.37,44.77-11,61.92-27.68,32.63-31.71,52.45-70.73,61.87-114.79,3.79-17.72,4.11-36.18,6.21-56.2-6.75,1.41-9.61,1.66-12.22,2.61q-181.57,65.89-363,132c-43.91,16.11-76,46.07-97.07,87.84-15.13,30.06-30.8,59.88-44.93,90.41-8.42,18.18-20.8,26.32-40.85,25.66-26.7-.89-53.45-.22-80.18-.22H818.86v19.7c0,184.2.21,368.41-.39,552.61-.05,15.3,5.18,20.72,19.14,24.62,101.67,28.43,202.72,59.17,304.83,85.88C1177,3111.78,1214.11,3111.31,1254.44,3115.67Zm-613.36-64.39H757.67V2339.11H641.08Zm847-317.83c42.37,0,84.76.64,127.11-.18,39.48-.77,67.36-28.8,66.8-65.33-.56-37-28.43-64.5-67.65-64.75-84.16-.52-168.33-.8-252.47.48-14.12.21-29.87,6.06-41.78,14-23,15.27-30.29,44.61-21.41,71.44s31.42,43.63,62.29,44.18C1403.31,2734,1445.69,2733.43,1488.06,2733.45Zm.7,59.63c-42.37,0-84.74-.29-127.11.09-38.55.34-66.28,27.07-66.5,63.27-.24,38.11,28,66.08,67.74,66.18q125.37.35,250.73,0c39.35-.08,68-27.14,68.36-63.74.34-38.1-27.62-65.46-67.86-65.75C1572.33,2792.84,1530.54,2793.07,1488.76,2793.08Zm-45.65,318.63h80.17c1.16,0,2.33,0,3.49,0,38.45-.78,65.61-27.46,65.46-64.31-.15-37.26-27.06-64.79-64.9-65.09q-83.65-.66-167.31,0c-37,.3-64.6,27.83-64.89,63.45-.3,37,26.92,65.18,64.32,65.84C1387.33,3112.06,1415.22,3111.66,1443.11,3111.71Z" transform="translate(-580.63 -2012.36)"/></svg>